<?xml version="1.0" encoding="utf-8"?>
<svg xmlns="http://www.w3.org/2000/svg" style="display: none;">
  <symbol id="communitarian_search" viewBox="0 0 18 18"><path d="m8 0c4.418278 0 8 3.581722 8 8 0 1.84820151-.6267357 3.550021-1.6792713 4.9045228l3.3863781 3.3883704-1.4142136 1.4142136-3.3883704-3.3863781c-1.3545018 1.0525356-3.05632129 1.6792713-4.9045228 1.6792713-4.418278 0-8-3.581722-8-8s3.581722-8 8-8zm0 2c-3.3137085 0-6 2.6862915-6 6s2.6862915 6 6 6 6-2.6862915 6-6-2.6862915-6-6-6z" fill="#fff"/>
  </symbol>
  <symbol id="communitarian_bars" viewBox="0 0 20 16"><path d="m20 14v2h-20v-2zm0-7v2h-20v-2zm0-7v2h-20v-2z" fill="#fff" fill-rule="evenodd"/>
  </symbol>
</svg>
